<svg style="opacity: 0.5" fill="#ffffff" xmlns="http://www.w3.org/2000/svg" viewBox="0 0 40 48.57"><g><g><path d="M23.26,48.57a15.33,15.33,0,0,1-.48-2.39c-.05-1.09.08-2.19.14-3.29s.14-2.37.23-3.55c0-.53.14-1.06.2-1.58a1.19,1.19,0,0,0,0-.53c-.35-.87-.7-1.75-1.1-2.6a21.68,21.68,0,0,1-1.44-5.39,6.08,6.08,0,0,0-.4-1.18,15.71,15.71,0,0,1-.72-1.64,27.19,27.19,0,0,0-2-4.32,8.87,8.87,0,0,0-5.19-4.4A11.89,11.89,0,0,0,8.27,17C6.15,17,4,16.85,1.9,16.73a5,5,0,0,1-1.48-.41C.24,16.25,0,15.9,0,15.8c.11-.27.34-.64.56-.68A10.85,10.85,0,0,1,2.77,15a13.38,13.38,0,0,0,5.17-.7,33,33,0,0,1,4.48-1.47,9.32,9.32,0,0,1,5.23.21,6,6,0,0,1,2.8,2.82c.8,1.33.82,2.89,1.27,4.32a8.23,8.23,0,0,1,.05,1.8c.12,1.56.27,3.12.39,4.68.09,1.06.11,2.12.21,3.18.14,1.37.33,2.73.54,4.09,0,.18.27.32.41.48.09-.22.26-.43.24-.64-.11-1.56-.3-3.12-.38-4.68C23.07,27,23,25,23,23c0-1.68-.07-3.37,0-5a74.57,74.57,0,0,0-.49-8.59c-.13-1.74-.15-3.49-.22-5.24,0-.85-.1-1.7-.12-2.55a4.72,4.72,0,0,1,.07-1A2,2,0,0,1,22.51,0,2.46,2.46,0,0,1,23,.43a1,1,0,0,1,.17.56,28.52,28.52,0,0,0,.44,5.22c.17,1.89.19,3.8.22,5.7.05,2.51,0,5,.06,7.53,0,1.55,0,3.1,0,4.66,0,.41.06.83.09,1.24l.24.05c.18-.76.38-1.51.51-2.27.26-1.48.38-3,.72-4.44a18,18,0,0,1,3.2-6.83,27.56,27.56,0,0,1,5.63-5.63,21.23,21.23,0,0,0,4.52-5.13c.18-.27.57-.65.76-.59.45.13.47.61.39,1.11-.14.89-.25,1.78-.31,2.67a9.17,9.17,0,0,1-1.21,3.57c-.5,1-1.11,1.94-1.69,2.89a16.85,16.85,0,0,0-2.24,6.84A33,33,0,0,1,34,21.17a8.16,8.16,0,0,1-1,2.55A40.71,40.71,0,0,1,29.82,28a47.09,47.09,0,0,1-4.1,4.25,3.84,3.84,0,0,0-1.19,2.79c-.18,2.16-.34,4.33-.41,6.5-.07,1.79,0,3.59,0,5.39a6.56,6.56,0,0,1-.46,1.6Zm1.29-16.51a3.1,3.1,0,0,0,.47-.27c1-.93,2-1.87,3-2.81a9.79,9.79,0,0,0,1.1-1.13c.78-1,1.48-2.11,2.28-3.11a8.43,8.43,0,0,0,1.81-3.84c.42-2.31.77-4.64,1.25-6.93a10.39,10.39,0,0,1,1.78-4.3,29.76,29.76,0,0,0,2.3-3.82,5.05,5.05,0,0,0,.36-2.94c-1.26,1.27-2.54,2.38-3.64,3.67-1.33,1.56-2.52,3.26-3.77,4.91a36.34,36.34,0,0,0-4.47,8,32.06,32.06,0,0,0-2.28,9.43c-.06.6-.13,1.2-.16,1.8C24.53,31.08,24.55,31.49,24.55,32.06ZM7,15.05l0,.22c1.53.49,3.06,1,4.6,1.47a11.38,11.38,0,0,1,6.45,4.35A42.39,42.39,0,0,1,20.29,25c.1.18.21.35.41.67a5.7,5.7,0,0,0,.11-.66,21.18,21.18,0,0,0-.22-5.68,20.36,20.36,0,0,0-1.09-3.76,3.32,3.32,0,0,0-3.25-2.16,30.2,30.2,0,0,0-3.79.48C10.64,14.23,8.84,14.66,7,15.05Z"/></g></g></svg>