<svg xmlns="http://www.w3.org/2000/svg" width="68" height="14" viewBox="0 0 68 14">
  <g id="Group_271" data-name="Group 271" transform="translate(-1430 -967)">
    <rect id="Rectangle_84" data-name="Rectangle 84" width="68" height="14" rx="7" transform="translate(1430 967)" fill="#b2fce4"/>
    <g id="Afterpay_Logo_Black" transform="translate(1439.514 969.653)">
      <g id="Group_270" data-name="Group 270">
        <path id="Path_73" data-name="Path 73" d="M1270.367,310.809l-1.457-.834-1.478-.846a1.467,1.467,0,0,0-2.2,1.271v.189a.285.285,0,0,0,.147.253l.686.392a.284.284,0,0,0,.425-.248v-.451a.29.29,0,0,1,.434-.253l1.347.775,1.343.77a.289.289,0,0,1,0,.5l-1.343.77-1.347.775a.29.29,0,0,1-.434-.253V313.4a1.466,1.466,0,0,0-2.2-1.272l-1.478.846-1.457.834a1.47,1.47,0,0,0,0,2.547l1.457.834,1.478.846a1.468,1.468,0,0,0,2.2-1.272v-.189a.285.285,0,0,0-.147-.253l-.686-.392a.284.284,0,0,0-.425.248v.451a.29.29,0,0,1-.434.253l-1.347-.775-1.343-.77a.289.289,0,0,1,0-.5l1.343-.77,1.347-.775a.29.29,0,0,1,.434.253v.223a1.466,1.466,0,0,0,2.2,1.271l1.478-.846,1.457-.834A1.47,1.47,0,0,0,1270.367,310.809Z" transform="translate(-1222.731 -308.933)"/>
        <g id="Group_267" data-name="Group 267" transform="translate(32.52 2.154)">
          <path id="Path_74" data-name="Path 74" d="M1138.558,360.1l-3.41,7.044h-1.415l1.276-2.631L1133,360.1h1.453l1.288,2.956,1.406-2.956Z" transform="translate(-1133 -360.1)"/>
        </g>
        <g id="Group_269" data-name="Group 269" transform="translate(0 0.108)">
          <g id="Group_268" data-name="Group 268">
            <path id="Path_75" data-name="Path 75" d="M364.579,360.589a1.362,1.362,0,1,0-1.36,1.432,1.366,1.366,0,0,0,1.36-1.432m.013,2.5v-.648a2,2,0,0,1-1.579.728,2.441,2.441,0,0,1-2.412-2.581A2.487,2.487,0,0,1,363.042,358a2,2,0,0,1,1.549.72v-.632h1.229v5Z" transform="translate(-360.6 -356.042)"/>
            <path id="Path_76" data-name="Path 76" d="M503.893,317.437c-.429,0-.552-.16-.552-.581v-2.219h.792v-1.09h-.792v-1.221h-1.259v1.221h-1.625v-.5c0-.421.16-.581.6-.581h.278V311.5h-.606c-1.04,0-1.533.341-1.533,1.381v.669h-.7v1.086h.7v3.911h1.259v-3.911h1.625v2.45c0,1.019.392,1.461,1.41,1.461h.648v-1.112h-.248Z" transform="translate(-492.694 -311.5)"/>
            <path id="Path_77" data-name="Path 77" d="M647.023,360.043a1.2,1.2,0,0,0-1.242-1.04,1.234,1.234,0,0,0-1.259,1.04Zm-2.514.779a1.245,1.245,0,0,0,1.292,1.162,1.321,1.321,0,0,0,1.179-.648h1.293a2.612,2.612,0,0,1-5.073-.834,2.587,2.587,0,1,1,5.174,0,1.592,1.592,0,0,1-.029.32Z" transform="translate(-631.302 -355.946)"/>
            <path id="Path_78" data-name="Path 78" d="M866.362,360.493a1.362,1.362,0,1,0-1.36,1.432,1.387,1.387,0,0,0,1.36-1.432m-3.962,4.543v-7.044h1.229v.648a1.987,1.987,0,0,1,1.579-.741,2.462,2.462,0,0,1,2.412,2.581,2.487,2.487,0,0,1-2.442,2.589,1.934,1.934,0,0,1-1.512-.669v2.631H862.4Z" transform="translate(-841.273 -355.946)"/>
            <path id="Path_79" data-name="Path 79" d="M1001.179,360.589a1.362,1.362,0,1,0-1.36,1.432,1.366,1.366,0,0,0,1.36-1.432m.013,2.5v-.648a2,2,0,0,1-1.579.728,2.441,2.441,0,0,1-2.412-2.581A2.487,2.487,0,0,1,999.642,358a2,2,0,0,1,1.549.72v-.632h1.229v5Z" transform="translate(-970.397 -356.042)"/>
            <path id="Path_80" data-name="Path 80" d="M781.634,358.481a1.308,1.308,0,0,1,1.621-.467v1.276a1.58,1.58,0,0,0-.888-.227.881.881,0,0,0-.695.968v2.96H780.4v-5h1.229v.488Z" transform="translate(-762.725 -355.946)"/>
          </g>
        </g>
      </g>
    </g>
  </g>
</svg>
