<svg xmlns="http://www.w3.org/2000/svg" width="66.017" height="40.99" viewBox="0 0 66.017 40.99">
  <path id="Path_18" data-name="Path 18" d="M1820.6-551.564c-.644,0-1.294-.029-1.932-.086a15.378,15.378,0,0,1-5.362-1.459,1.57,1.57,0,0,0-.693-.174,1.624,1.624,0,0,0-.682.164,17.325,17.325,0,0,1-7.262,1.545,21.431,21.431,0,0,1-2.813-.192,27.9,27.9,0,0,1-17.585-9.437,18.234,18.234,0,0,1-4.2-7.7,19.358,19.358,0,0,1-.4-2.677c-.024-.235-.048-.47-.075-.7a1.13,1.13,0,0,1,.61-1.124,13.615,13.615,0,0,1,6.073-2.091c.948-.1,1.926-.128,2.873-.159l.786-.027c.377-.014.646-.024.843-.251s.169-.508.128-.893a16.8,16.8,0,0,1,1.911-10.194,1.239,1.239,0,0,1,1.223-.724h.046a16.819,16.819,0,0,1,8.457,2.567,14.158,14.158,0,0,1,1.2.775,1.123,1.123,0,0,0,.653.266.913.913,0,0,0,.781-.627,18,18,0,0,1,2.636-4.161,14.783,14.783,0,0,1,3.995-3.406,1.526,1.526,0,0,1,.761-.226,1.644,1.644,0,0,1,.827.256,16.111,16.111,0,0,1,5.516,5.627c.367.587.695,1.223,1.012,1.837l.06.117a.907.907,0,0,0,.767.581,1.072,1.072,0,0,0,.62-.244,17.664,17.664,0,0,1,5.059-2.592,13.451,13.451,0,0,1,4.176-.734c.162,0,.326,0,.487.012a1.385,1.385,0,0,1,1.241.71,15.481,15.481,0,0,1,2.027,8.045c-.015.292-.025.557-.035.8-.02.51-.038.952-.085,1.375a1.051,1.051,0,0,0,.191.843,1.1,1.1,0,0,0,.843.3h.041a36.745,36.745,0,0,1,3.808.189,14.333,14.333,0,0,1,5.826,2.092,1.4,1.4,0,0,1,.651,1.358,14.937,14.937,0,0,1-1.645,6.3,23.4,23.4,0,0,1-6.95,8.244,29.072,29.072,0,0,1-9.034,4.685A24.435,24.435,0,0,1,1820.6-551.564Zm15.586-21.8c-.572,0-1.17.026-1.778.079a1.078,1.078,0,0,0-1.014.841,30.081,30.081,0,0,1-3.728,7.962,24.642,24.642,0,0,1-10.47,9.229c-.139.062-.27.132-.4.2l-.164.086-.3.155.159.825.339.03c.079.007.157.016.236.024.181.019.369.039.563.044.172,0,.344.006.516.006a24.856,24.856,0,0,0,12.952-3.758,23.039,23.039,0,0,0,8.23-8.1,14.8,14.8,0,0,0,1.809-4.808,1.242,1.242,0,0,0-.766-1.576A15.1,15.1,0,0,0,1836.186-573.368Zm-47.66-.061c-.677,0-1.241.019-1.777.06a12.348,12.348,0,0,0-4.252,1.166.989.989,0,0,0-.629,1.215c.064.252.123.507.182.761a16.235,16.235,0,0,0,.584,2.079,20.174,20.174,0,0,0,7.23,9.064,25.7,25.7,0,0,0,9.835,4.6,20.992,20.992,0,0,0,4.542.551h0c.5,0,.988-.024,1.464-.071a3.583,3.583,0,0,0,.421-.075c.065-.014.135-.03.212-.045l.788-.154-.542-.593c-.031-.034-.053-.061-.07-.082a.63.63,0,0,0-.257-.208,22.862,22.862,0,0,1-9.222-7.15,28.737,28.737,0,0,1-5.462-10.354,1.164,1.164,0,0,0-.988-.726l-.388-.009C1789.651-573.416,1789.085-573.429,1788.526-573.429Zm24-16.566a1.046,1.046,0,0,0-.73.325c-.219.207-.454.412-.681.611a13.075,13.075,0,0,0-1.384,1.338,20.353,20.353,0,0,0-4.458,10.3,25.261,25.261,0,0,0,1.987,14.938,15.261,15.261,0,0,0,4.525,5.755,1.182,1.182,0,0,0,.724.28,1.162,1.162,0,0,0,.713-.274,14.221,14.221,0,0,0,3.28-3.542,23.742,23.742,0,0,0,3.635-12.827v-.02a24.907,24.907,0,0,0-2.784-11.665,14.88,14.88,0,0,0-4.1-4.937A1.2,1.2,0,0,0,1812.531-590Zm17.357,4.635a2.234,2.234,0,0,0-.3.022,16.469,16.469,0,0,0-7.662,3.335,1.218,1.218,0,0,0-.463,1.428l.062.244c.171.665.347,1.352.456,2.028a29.438,29.438,0,0,1-.157,10.855,22.944,22.944,0,0,1-3.681,8.8,1.766,1.766,0,0,0-.166.306c-.015.032-.029.064-.045.1l-.133.263.483.586.318-.152.2-.094c.148-.07.3-.141.453-.219a20.423,20.423,0,0,0,5.107-3.755,25.057,25.057,0,0,0,7.661-16.995,14.218,14.218,0,0,0-.995-5.916A1.154,1.154,0,0,0,1829.888-585.361Zm-34.773-.057a1,1,0,0,0-1.015.776c-.069.223-.157.443-.249.676a8.127,8.127,0,0,0-.326.927,17.432,17.432,0,0,0-.2,7.627,25.14,25.14,0,0,0,3.616,9.178,23.515,23.515,0,0,0,8.37,8.114c.247.139.5.261.747.379.111.053.221.106.331.161l.326.162.5-.625-.16-.268c-.023-.038-.045-.077-.067-.116-.054-.094-.109-.191-.176-.289a24.9,24.9,0,0,1-4.161-13.534,27.794,27.794,0,0,1,.984-8.479,1.038,1.038,0,0,0-.466-1.276,2.544,2.544,0,0,1-.238-.174c-.067-.053-.133-.1-.2-.154a16.426,16.426,0,0,0-7.325-3.061A2.122,2.122,0,0,0,1795.115-585.417Z" transform="translate(-1779.582 592.554)" fill="#aa947c"/>
</svg>
