<svg xmlns="http://www.w3.org/2000/svg" width="80" height="35" viewBox="0 0 80 35">
  <g id="Group_40" data-name="Group 40" transform="translate(-1814 -969)">
    <g id="Group_39" data-name="Group 39" transform="translate(1812 -65.215)">
      <path id="Rectangle_43" data-name="Rectangle 43" d="M17.5,0h59A3.5,3.5,0,0,1,80,3.5v14A17.5,17.5,0,0,1,62.5,35h-45A17.5,17.5,0,0,1,0,17.5v0A17.5,17.5,0,0,1,17.5,0Z" transform="translate(2 1034.215)" fill="#a3ac99"/>
    </g>
    <path id="Path_57" data-name="Path 57" d="M-14.144,0V-10.021h2.023v3.944h3.965v-3.944h2.023V0H-8.155V-4.382H-12.12V0ZM.15-2.311l1.914.321A3.14,3.14,0,0,1,.9-.386a3.424,3.424,0,0,1-1.993.55A3.248,3.248,0,0,1-3.9-1.073a4.157,4.157,0,0,1-.718-2.5A4.009,4.009,0,0,1-3.671-6.4,3.107,3.107,0,0,1-1.285-7.424a3.223,3.223,0,0,1,2.557,1.07,4.734,4.734,0,0,1,.9,3.278H-2.646a1.943,1.943,0,0,0,.465,1.33,1.454,1.454,0,0,0,1.107.475,1.176,1.176,0,0,0,.759-.246A1.52,1.52,0,0,0,.15-2.311ZM.26-4.252A1.849,1.849,0,0,0-.171-5.52a1.322,1.322,0,0,0-1-.434A1.334,1.334,0,0,0-2.208-5.5a1.772,1.772,0,0,0-.4,1.244ZM3.732,0V-10.021H5.653V0ZM7.567-7.26H9.358v1.066a2.68,2.68,0,0,1,.943-.889,2.6,2.6,0,0,1,1.319-.342,2.768,2.768,0,0,1,2.146.991,4.012,4.012,0,0,1,.882,2.762,4.134,4.134,0,0,1-.889,2.827A2.769,2.769,0,0,1,11.607.164a2.447,2.447,0,0,1-1.09-.239A3.675,3.675,0,0,1,9.488-.9V2.762H7.567Zm1.9,3.507a2.8,2.8,0,0,0,.485,1.808,1.485,1.485,0,0,0,1.183.584A1.388,1.388,0,0,0,12.25-1.9a2.765,2.765,0,0,0,.444-1.76,2.624,2.624,0,0,0-.458-1.7A1.417,1.417,0,0,0,11.1-5.906a1.474,1.474,0,0,0-1.169.543A2.419,2.419,0,0,0,9.468-3.753Z" transform="translate(1864 991)"/>
    <text id="_" data-name="?" transform="translate(1835 990)" font-size="12" font-family="Arial-BoldMT, Arial" font-weight="700"><tspan x="-3.665" y="0">?</tspan></text>
    <g id="Ellipse_5" data-name="Ellipse 5" transform="translate(1827 978)" fill="none" stroke="#000" stroke-width="1">
      <circle cx="8" cy="8" r="8" stroke="none"/>
      <circle cx="8" cy="8" r="7.5" fill="none"/>
    </g>
  </g>
</svg>
