<svg xmlns="http://www.w3.org/2000/svg" width="18.533" height="18.529" viewBox="0 0 18.533 18.529">
  <path id="Icon_awesome-instagram" data-name="Icon awesome-instagram" d="M9.264,6.752A4.751,4.751,0,1,0,14.014,11.5,4.743,4.743,0,0,0,9.264,6.752Zm0,7.839A3.089,3.089,0,1,1,12.352,11.5a3.094,3.094,0,0,1-3.089,3.089Zm6.053-8.034a1.108,1.108,0,1,1-1.108-1.108A1.106,1.106,0,0,1,15.317,6.557Zm3.146,1.125a5.484,5.484,0,0,0-1.5-3.882,5.52,5.52,0,0,0-3.882-1.5c-1.53-.087-6.115-.087-7.645,0A5.512,5.512,0,0,0,1.557,3.8,5.5,5.5,0,0,0,.06,7.678c-.087,1.53-.087,6.115,0,7.645a5.484,5.484,0,0,0,1.5,3.882,5.527,5.527,0,0,0,3.882,1.5c1.53.087,6.115.087,7.645,0a5.484,5.484,0,0,0,3.882-1.5,5.52,5.52,0,0,0,1.5-3.882c.087-1.53.087-6.111,0-7.641Zm-1.976,9.282a3.127,3.127,0,0,1-1.761,1.761c-1.22.484-4.114.372-5.462.372s-4.246.108-5.462-.372A3.127,3.127,0,0,1,2.04,16.964c-.484-1.22-.372-4.114-.372-5.462s-.108-4.246.372-5.462A3.127,3.127,0,0,1,3.8,4.279c1.22-.484,4.114-.372,5.462-.372s4.246-.108,5.462.372a3.127,3.127,0,0,1,1.761,1.761c.484,1.22.372,4.114.372,5.462S16.97,15.749,16.487,16.964Z" transform="translate(0.005 -2.238)"/>
</svg>
