<svg xmlns="http://www.w3.org/2000/svg" width="14.25" height="18.521" viewBox="0 0 14.25 18.521">
  <path id="Icon_awesome-pinterest-p" data-name="Icon awesome-pinterest-p" d="M7.57.457C3.763.457,0,3,0,7.1c0,2.612,1.47,4.1,2.36,4.1.367,0,.579-1.024.579-1.314,0-.345-.879-1.08-.879-2.516a5.015,5.015,0,0,1,5.21-5.1c2.527,0,4.4,1.436,4.4,4.075,0,1.97-.79,5.667-3.351,5.667A1.648,1.648,0,0,1,6.6,10.387c0-1.4.98-2.761.98-4.208,0-2.457-3.485-2.011-3.485.957a4.36,4.36,0,0,0,.356,1.881c-.512,2.2-1.559,5.488-1.559,7.76,0,.7.1,1.392.167,2.093.126.141.063.126.256.056,1.87-2.561,1.8-3.062,2.65-6.412A3.01,3.01,0,0,0,8.539,13.85c3.941,0,5.711-3.841,5.711-7.3C14.25,2.862,11.066.457,7.57.457Z" transform="translate(0 -0.457)"/>
</svg>
