<svg xmlns="http://www.w3.org/2000/svg" width="45.688" height="40.156" viewBox="0 0 45.688 40.156">
  <g id="Group_167" data-name="Group 167" transform="translate(-967.551 -1308.803)">
    <path id="Icon_feather-heart" data-name="Icon feather-heart" d="M42.273,7.835a11.39,11.39,0,0,0-16.111,0l-2.2,2.2-2.2-2.2A11.393,11.393,0,1,0,5.66,23.947l2.2,2.2L23.966,42.253,40.078,26.142l2.2-2.2a11.39,11.39,0,0,0,0-16.112Z" transform="translate(966.428 1305.505)" fill="none" stroke="#aa947c" stroke-linecap="round" stroke-linejoin="round" stroke-width="2.4"/>
    <path id="Icon_feather-heart-2" data-name="Icon feather-heart" d="M26.724,6.536a6.957,6.957,0,0,0-9.841,0L15.543,7.877,14.2,6.536a6.959,6.959,0,1,0-9.841,9.841L5.7,17.718l9.841,9.841,9.841-9.841,1.341-1.341a6.957,6.957,0,0,0,0-9.841Z" transform="translate(974.851 1320.2)" fill="none" stroke="#aa947c" stroke-linecap="round" stroke-linejoin="round" stroke-width="2.4"/>
  </g>
</svg>
