<svg xmlns="http://www.w3.org/2000/svg" width="16.002" height="18.224" viewBox="0 0 16.002 18.224">
  <g id="Group_345" data-name="Group 345" transform="translate(-332.321 -107.119)">
    <path id="Path_48" data-name="Path 48" d="M4.5,9V20.668a1.667,1.667,0,0,0,1.667,1.667H17.835A1.667,1.667,0,0,0,19.5,20.668V9Z" transform="translate(328.321 102.508)" fill="none" stroke="#000" stroke-linecap="round" stroke-linejoin="round" stroke-width="1"/>
    <path id="Path_49" data-name="Path 49" d="M4.5,9h15" transform="translate(328.321 102.508)" fill="none" stroke="#000" stroke-linecap="round" stroke-linejoin="round" stroke-width="1"/>
    <path id="Path_50" data-name="Path 50" d="M18.668,15A3.334,3.334,0,1,1,12,15" transform="translate(324.988 99.842)" fill="none" stroke="#000" stroke-linecap="round" stroke-linejoin="round" stroke-width="1"/>
    <path id="Path_51" data-name="Path 51" d="M6.668,0A3.334,3.334,0,0,1,3.334,3.334,3.334,3.334,0,0,1,0,0" transform="translate(343.655 110.953) rotate(180)" fill="none" stroke="#000" stroke-linecap="round" stroke-linejoin="round" stroke-width="1"/>
  </g>
</svg>
