<svg xmlns="http://www.w3.org/2000/svg" width="35" height="35" viewBox="0 0 35 35">
  <g id="Group_261" data-name="Group 261" transform="translate(-1860 -991)">
    <g id="Group_37" data-name="Group 37" transform="translate(1827 -40.801)">
      <circle id="Ellipse_4" data-name="Ellipse 4" cx="17.5" cy="17.5" r="17.5" transform="translate(33 1031.801)" fill="#a3ac99"/>
    </g>
    <g id="Group_158" data-name="Group 158" transform="translate(1806.122 807.202)">
      <path id="Path_20" data-name="Path 20" d="M78.267,223.544a1.1,1.1,0,0,0-1.423-.677c-1.087.314-2.171.638-3.265.927a6.738,6.738,0,0,1-3.561.194c-1.354-.369-2.713-.724-4.066-1.1a1.233,1.233,0,0,0-1.3.346.944.944,0,0,0,0,1.185,1.71,1.71,0,0,0,.746.472c1.357.432,2.725.829,4.089,1.239.47.141.576.3.543.8-.019.283-.016.569-.054.85a13.753,13.753,0,0,1-.364,2.332c-.45,1.414-1.022,2.789-1.553,4.177-.21.547-.47,1.076-.665,1.628a1.039,1.039,0,0,0,.612,1.323.973.973,0,0,0,1.306-.537q.98-1.988,1.956-3.977c.047-.1.1-.188.176-.324.073.145.129.248.178.354.611,1.323,1.214,2.649,1.834,3.967a.991.991,0,0,0,1.377.489,1.027,1.027,0,0,0,.517-1.377c-.492-1.186-1.006-2.365-1.454-3.568a23.644,23.644,0,0,1-.943-3,16.419,16.419,0,0,1-.2-2.33c-.038-.488.077-.664.538-.8,1.393-.42,2.787-.836,4.178-1.262A1.066,1.066,0,0,0,78.267,223.544Z" transform="translate(0 -26.902)"/>
      <path id="Path_21" data-name="Path 21" d="M107.281,196.209a2.021,2.021,0,1,0-2-2.043A2.008,2.008,0,0,0,107.281,196.209Z" transform="translate(-35.847 0)"/>
    </g>
  </g>
</svg>
