<svg xmlns="http://www.w3.org/2000/svg" width="47.712" height="43.154" viewBox="0 0 47.712 43.154">
  <g id="Group_166" data-name="Group 166" transform="translate(-2500.811 714.25)">
    <path id="Path_25" data-name="Path 25" d="M2547.452-714.25h-13.671a10.2,10.2,0,0,0-9.114,5.644,10.2,10.2,0,0,0-9.114-5.644h-13.671a1.07,1.07,0,0,0-1.07,1.07V-679a1.07,1.07,0,0,0,1.07,1.07h15.95a5.772,5.772,0,0,1,5.765,5.766,1.07,1.07,0,0,0,1.07,1.07,1.07,1.07,0,0,0,1.07-1.07,5.772,5.772,0,0,1,5.765-5.766h15.95a1.07,1.07,0,0,0,1.07-1.07V-713.18A1.07,1.07,0,0,0,2547.452-714.25ZM2523.6-677.57a7.884,7.884,0,0,0-5.765-2.5h-14.88V-712.11h12.6a8.053,8.053,0,0,1,8.044,8.044Zm22.786-2.5H2531.5a7.884,7.884,0,0,0-5.765,2.5v-26.5a8.053,8.053,0,0,1,8.044-8.044h12.6Z" fill="#aa947c"/>
    <path id="Path_26" data-name="Path 26" d="M2566.521-598H2555.07a1.07,1.07,0,0,0-1.07,1.07,1.07,1.07,0,0,0,1.07,1.07h11.451a1.071,1.071,0,0,0,1.07-1.07A1.07,1.07,0,0,0,2566.521-598Z" transform="translate(-47.497 -103.809)" fill="#aa947c"/>
    <path id="Path_27" data-name="Path 27" d="M2566.521-540H2555.07a1.07,1.07,0,0,0-1.07,1.07,1.07,1.07,0,0,0,1.07,1.07h11.451a1.07,1.07,0,0,0,1.07-1.07A1.07,1.07,0,0,0,2566.521-540Z" transform="translate(-47.497 -155.602)" fill="#aa947c"/>
    <path id="Path_28" data-name="Path 28" d="M2563.311-483h-8.24a1.07,1.07,0,0,0-1.07,1.07,1.07,1.07,0,0,0,1.07,1.07h8.24a1.07,1.07,0,0,0,1.07-1.07A1.07,1.07,0,0,0,2563.311-483Z" transform="translate(-47.497 -206.502)" fill="#aa947c"/>
    <path id="Path_29" data-name="Path 29" d="M2772-596.93a1.07,1.07,0,0,0,1.07,1.07h11.451a1.07,1.07,0,0,0,1.07-1.07,1.07,1.07,0,0,0-1.07-1.07H2773.07A1.07,1.07,0,0,0,2772-596.93Z" transform="translate(-242.168 -103.809)" fill="#aa947c"/>
    <path id="Path_30" data-name="Path 30" d="M2785.591-538.93a1.07,1.07,0,0,0-1.07-1.07H2773.07a1.07,1.07,0,0,0-1.07,1.07,1.07,1.07,0,0,0,1.07,1.07h11.451A1.07,1.07,0,0,0,2785.591-538.93Z" transform="translate(-242.168 -155.602)" fill="#aa947c"/>
    <path id="Path_31" data-name="Path 31" d="M2817.564-483.006h-7.491a1.07,1.07,0,0,0-1.07,1.07,1.07,1.07,0,0,0,1.07,1.07h7.491a1.07,1.07,0,0,0,1.07-1.07A1.07,1.07,0,0,0,2817.564-483.006Z" transform="translate(-275.211 -206.497)" fill="#aa947c"/>
  </g>
</svg>
