<svg xmlns="http://www.w3.org/2000/svg" width="54.442" height="53.199" viewBox="0 0 54.442 53.199">
  <g id="Group_73" data-name="Group 73" transform="translate(-1063.439 651.791)">
    <path id="Path_17" data-name="Path 17" d="M1090.861-616.794c-.146-1.183-.279-2.214-.4-3.246a79.74,79.74,0,0,1-.219-17.861,54.888,54.888,0,0,1,3.281-13.542c.025-.066.059-.128.163-.348.6,1.872,1.207,3.6,1.7,5.359a27,27,0,0,1,1.153,8.146,13.044,13.044,0,0,1-1.255,5.7,5.045,5.045,0,0,1-3.474,2.87,101.507,101.507,0,0,0,2.292,19.529c.473-1.005.884-1.864,1.272-2.732.036-.08-.073-.225-.116-.339a13.389,13.389,0,0,1-.849-7.5,9.883,9.883,0,0,1,6.042-7.151,23.829,23.829,0,0,1,11.12-1.932c2.069.085,4.133.3,6.31.464-.156.265-.254.43-.352.6a42,42,0,0,0-2.8,4.909,40.227,40.227,0,0,0-1.611,5.7c-1.1,4.436-3.772,6.874-8.324,7.412a38.016,38.016,0,0,1-4.393.178.937.937,0,0,1-.832-1.44,1.145,1.145,0,0,1,1.042-.481,43.156,43.156,0,0,0,4.873-.346,6.642,6.642,0,0,0,5.728-5.679,30.055,30.055,0,0,1,1.87-6.544c.406-.879.89-1.721,1.373-2.646-.618-.046-1.228-.1-1.839-.134a24.717,24.717,0,0,0-9.992,1.142,10.194,10.194,0,0,0-4.856,3.189,8.478,8.478,0,0,0-1.388,7.216c.057.287.132.572.2.856a.822.822,0,0,0,.106.173c.527-.744,1.027-1.48,1.557-2.194a27.472,27.472,0,0,1,10.258-8.47,1,1,0,0,1,1.463.351.989.989,0,0,1-.6,1.381,25.79,25.79,0,0,0-6.906,4.853c-.129.127-.25.261-.488.511a6.589,6.589,0,0,1,.895-.076c1.093.071,2.188.13,3.275.262a.861.861,0,0,1,.725.967.929.929,0,0,1-.823.895,2.188,2.188,0,0,1-.6-.06,7.652,7.652,0,0,0-4.333.3c-.525.207-1.046.428-1.555.671a1.032,1.032,0,0,0-.322.358,32.183,32.183,0,0,0-3.808,7.358c-.118.316-.36.584-.5.893a.774.774,0,0,0-.037.491c.6,2.193,1.208,4.382,1.816,6.572.024.088.056.174.081.263a.982.982,0,0,1-.578,1.3.972.972,0,0,1-1.269-.73c-.458-1.47-.954-2.933-1.318-4.427-.725-2.974-1.34-5.975-2.076-8.946a3.968,3.968,0,0,0-.969-1.546,24.137,24.137,0,0,0-5.167-4.174,47.405,47.405,0,0,0-13-5.959,24.608,24.608,0,0,0-7.287-.945c-.239.008-.478.022-.716.008a.924.924,0,0,1-.806-1.417c2.128-3.12,4.766-5.6,8.612-6.385a8.9,8.9,0,0,1,6.619,1.422,18.522,18.522,0,0,1,4.4,4.05,3.916,3.916,0,0,0,1.024.877,9.906,9.906,0,0,1,5.012,8.023,1.428,1.428,0,0,0,.631,1.188A11.681,11.681,0,0,1,1090.861-616.794Zm-18.993-9.849a51.27,51.27,0,0,1,15.315,6.973,8.191,8.191,0,0,0-5.742-6.263A22.491,22.491,0,0,0,1071.868-626.643Zm21.777-18.811c-.966,2.782-2.089,11.617-1.75,13.744.275-.2.536-.355.761-.554a5.046,5.046,0,0,0,1.455-2.6C1095.047-638.4,1094.537-641.883,1093.645-645.454Zm-13.742,17.1c-3.891-4.119-8.868-4.019-12.834.406A34.472,34.472,0,0,1,1079.9-628.351Z" fill="#aa947c"/>
  </g>
</svg>
