<svg xmlns="http://www.w3.org/2000/svg" width="559.959" height="679.917" viewBox="0 0 559.959 679.917">
  <path id="Path_58" data-name="Path 58" d="M378.608,829.917c-2.362-11.125-6.217-22.17-6.723-33.394-.69-15.307,1.087-30.757,1.963-46.135.946-16.584,1.923-33.17,3.187-49.727.565-7.407,1.93-14.739,2.8-22.125.287-2.445.9-5.306.079-7.369-4.879-12.22-9.783-24.456-15.34-36.32-11.163-23.832-15.4-49.736-20.192-75.547-1.058-5.7-3.392-11.187-5.606-16.543-3.194-7.722-7.783-14.908-10.067-22.9-6.241-21.849-17.777-40.55-27.456-60.489-16.089-33.143-42.789-50.035-72.682-61.547-18.85-7.259-39.254-10.106-59.853-10.172-29.722-.1-59.453-1.8-89.147-3.512-7.022-.4-14.072-3.077-20.776-5.711-2.552-1-6.329-5.881-5.8-7.177,1.555-3.8,4.674-9.019,7.752-9.52A143.694,143.694,0,0,1,91.7,359.91a185.982,185.982,0,0,0,72.351-9.926c20.815-7.229,41.368-16.266,62.707-20.548,24.2-4.858,49.242-6.181,73.325,3.037,18.2,6.965,28.87,22.648,39.108,39.477,11.271,18.526,11.5,40.451,17.818,60.449,2.388,7.557.1,16.737.717,25.109,1.612,21.88,3.77,43.712,5.475,65.585,1.155,14.806,1.443,29.706,2.958,44.461,1.97,19.183,4.586,38.3,7.444,57.349.372,2.482,3.833,4.416,5.863,6.6,1.179-2.955,3.55-6.012,3.347-8.85-1.571-21.888-4.245-43.7-5.406-65.6-1.509-28.459-2.21-56.98-2.75-85.486-.446-23.55-1.026-47.162.006-70.666,1.776-40.443-4.045-80.222-6.92-120.276-1.752-24.4-2.066-48.913-3.1-73.372-.5-11.915-1.33-23.815-1.688-35.734a63.27,63.27,0,0,1,1.092-14.008c.53-2.688,2.584-5.021,3.952-7.512,2.328,1.953,5.131,3.517,6.838,5.979a13.177,13.177,0,0,1,2.263,7.883c-2.17,24.825,4.011,48.713,6.22,73.042,2.405,26.484,2.633,53.234,3.105,79.884.623,35.124.582,70.262.782,105.394.124,21.709.076,43.42.3,65.128.061,5.825.841,11.641,1.291,17.461l3.369.634c2.422-10.6,5.321-21.1,7.163-31.813,3.551-20.666,5.292-41.784,9.975-62.118,8.156-35.42,23.445-67.1,44.836-95.627a389.887,389.887,0,0,1,78.775-78.768c25.49-19.1,44.832-45.081,63.285-71.827,2.615-3.79,7.973-9.092,10.7-8.281,6.342,1.885,6.614,8.635,5.479,15.626-2.006,12.353-3.474,24.858-4.348,37.368-1.293,18.494-8.969,34.384-16.911,49.975-7.1,13.936-15.581,27.055-23.7,40.357-17.775,29.133-27.182,61.439-31.375,95.835-2.05,16.816-3.274,33.91-7.1,50.259-2.92,12.462-7.8,25.14-14.556,35.618-13.567,21.03-27.962,41.684-43.972,60.522a640.186,640.186,0,0,1-57.458,59.435c-12.02,10.9-15.446,24.28-16.668,39.117-2.493,30.269-4.675,60.6-5.746,90.965-.885,25.106.534,50.3-.2,75.423-.221,7.55-4.246,14.969-6.527,22.447Zm18.05-231.1c4.147-2.362,5.561-2.838,6.589-3.8q20.87-19.59,41.627-39.325c5.323-5.081,11.02-9.9,15.507-15.778,10.882-14.256,20.605-29.587,31.817-43.509,12.712-15.785,21.585-33.385,25.358-53.855,5.961-32.324,10.829-64.909,17.541-97.042,4.509-21.588,11.269-42.156,24.915-60.105,12.4-16.317,22.06-35.21,32.136-53.484,6.751-12.246,6.324-26.122,5.134-41.143-17.762,17.7-35.589,33.333-51.019,51.391-18.635,21.809-35.3,45.623-52.711,68.658-25.672,33.954-46.082,71.826-62.675,111.452-17.423,41.61-27.5,86.221-31.882,132.015-.8,8.388-1.75,16.766-2.269,25.175C396.374,585.138,396.658,590.861,396.658,598.813Zm-245.228-238.1.459,3.094c21.469,6.868,42.878,13.969,64.42,20.55,35.564,10.865,67.859,27.991,90.365,60.934,11.627,17.018,20.3,36.419,30.349,54.721,1.383,2.522,2.963,4.916,5.657,9.357.875-5.008,1.515-7.108,1.572-9.225.708-26.583,3.319-53.342-3.03-79.5-4.321-17.8-7.781-36.379-15.281-52.609-8.8-19.038-24.525-31.536-45.449-30.366a417.977,417.977,0,0,0-53.148,6.818C201.934,349.217,176.725,355.236,151.429,360.709Z" transform="translate(-52.941 -150)" fill="#f9f5f2"/>
</svg>
